<?xml version="1.0" encoding="utf-8"?>
<!-- Generator: Adobe Illustrator 15.0.0, SVG Export Plug-In . SVG Version: 6.00 Build 0)  -->
<!DOCTYPE svg PUBLIC "-//W3C//DTD SVG 1.1//EN" "http://www.w3.org/Graphics/SVG/1.1/DTD/svg11.dtd">
<svg version="1.1" xmlns="http://www.w3.org/2000/svg" xmlns:xlink="http://www.w3.org/1999/xlink" x="0px" y="0px"
   width="35px" height="35px" viewBox="0 0 256 256" enable-background="new 0 0 256 256" xml:space="preserve">
<path fill="#FFF" d="M223.975,0.025c8.907,0,16.455,3.127,22.71,9.417C252.872,15.698,256,23.313,256,32.187v191.625
  c0,4.557-0.884,8.771-2.584,12.715c-1.734,3.876-4.012,7.208-6.834,10.063c-2.821,2.856-6.255,5.1-10.232,6.8
  c-4.012,1.768-8.125,2.584-12.375,2.584h-80.982V148.832h28.694c1.292,0,2.517-0.408,3.569-1.326
  c1.055-0.884,1.598-2.04,1.598-3.502l1.973-28.014c0-1.53-0.441-2.856-1.326-3.978c-1.121-1.122-2.414-1.666-3.842-1.666h-30.666
  V98.006c0-4.556,0.613-7.582,1.769-9.078c1.155-1.496,4.147-2.244,8.907-2.244c2.787,0,5.848,0.204,9.247,0.68
  c3.399,0.408,6.663,1.054,9.757,1.802c0.646,0,1.395-0.068,2.244-0.238s1.463-0.476,1.938-0.918c1.088-0.646,1.871-1.87,2.312-3.671
  l3.808-26.994c0.476-3.229-0.918-5.167-4.147-5.813c-9.995-2.788-20.433-4.114-31.346-4.012c-33.419,0-50.146,16.285-50.146,48.82
  v14.007H80.166c-3.671,0-5.439,1.768-5.303,5.337v27.98c0,1.359,0.476,2.55,1.496,3.604c0.986,1.055,2.244,1.564,3.808,1.564h17.169
  v107.143H31.821c-4.317,0-8.431-0.816-12.307-2.584c-3.876-1.7-7.275-3.943-10.097-6.8c-2.822-2.855-5.1-6.188-6.833-10.063
  C0.884,232.584,0,228.369,0,223.812V32.187c0-4.318,0.884-8.5,2.584-12.511c1.734-3.978,4.012-7.412,6.833-10.233
  c2.822-2.855,6.221-5.1,10.097-6.833c3.875-1.734,7.989-2.583,12.307-2.583H223.975L223.975,0.025z"/>
</svg>
