<?xml version="1.0" encoding="utf-8"?>
<!-- Generator: Adobe Illustrator 15.0.0, SVG Export Plug-In . SVG Version: 6.00 Build 0)  -->
<!DOCTYPE svg PUBLIC "-//W3C//DTD SVG 1.1//EN" "http://www.w3.org/Graphics/SVG/1.1/DTD/svg11.dtd">
<svg version="1.1" xmlns="http://www.w3.org/2000/svg" xmlns:xlink="http://www.w3.org/1999/xlink" x="0px" y="0px"
   width="35px" height="35px" viewBox="0 0 256 256" enable-background="new 0 0 256 256" xml:space="preserve">
<path fill="#FFF" d="M240.159,21.31c4.364,0,8.104,1.587,11.193,4.732c3.117,3.146,4.647,6.886,4.647,11.25v181.416
  c0,4.364-1.53,8.104-4.647,11.25c-3.089,3.146-6.829,4.732-11.193,4.732H15.954c-4.336,0-8.104-1.587-11.25-4.732
  S0,223.072,0,218.708V37.292c0-4.364,1.559-8.104,4.704-11.25s6.914-4.732,11.25-4.732H240.159L240.159,21.31z M21.395,42.704v9.04
  c0,2.862,0.624,5.894,1.927,9.096c1.303,3.174,2.947,6.263,4.931,9.238c1.984,2.947,4.166,5.725,6.546,8.274
  c2.352,2.522,4.675,4.676,7,6.433c9.266,7.057,18.504,14.027,27.714,20.913c9.209,6.915,18.447,13.971,27.714,21.196
  c1.842,1.474,4.081,3.202,6.659,5.215c2.607,1.983,5.299,3.938,8.076,5.809c2.777,1.927,5.526,3.542,8.246,4.874
  c2.749,1.36,5.271,2.012,7.595,2.012h0.255h0.283c2.324,0,4.846-0.651,7.566-2.012c2.748-1.332,5.469-2.947,8.218-4.874
  c2.721-1.87,5.355-3.825,7.906-5.809c2.55-2.013,4.789-3.741,6.744-5.215c9.267-7.226,18.505-14.31,27.714-21.253
  c9.21-6.942,18.447-13.914,27.714-20.856c2.296-1.644,4.647-3.769,6.999-6.375c2.381-2.607,4.534-5.384,6.547-8.332
  c1.983-2.975,3.655-6.064,4.987-9.238c1.36-3.202,2.012-6.234,2.012-9.096v-9.04H21.395z M234.747,213.296V94.93
  c-2.862,2.89-5.554,5.186-8.048,6.943c-9.805,7.424-19.666,14.792-29.527,22.16s-19.639,14.934-29.387,22.727
  c-5.639,4.533-11.731,8.897-18.249,13.035c-6.546,4.193-13.771,6.262-21.734,6.262c-7.595,0-14.679-2.068-21.253-6.262
  c-6.574-4.138-12.695-8.502-18.334-13.035c-9.635-7.793-19.411-15.388-29.33-22.784c-9.918-7.424-19.779-14.764-29.584-22.103
  c-2.494-1.644-5.129-3.967-7.906-6.943v118.366H234.747z"/>
</svg>
