<?xml version="1.0" encoding="utf-8"?>
<!-- Generator: Adobe Illustrator 15.0.0, SVG Export Plug-In . SVG Version: 6.00 Build 0)  -->
<!DOCTYPE svg PUBLIC "-//W3C//DTD SVG 1.1//EN" "http://www.w3.org/Graphics/SVG/1.1/DTD/svg11.dtd">
<svg version="1.1" xmlns="http://www.w3.org/2000/svg" xmlns:xlink="http://www.w3.org/1999/xlink" x="0px" y="0px"
   width="35px" height="35px" viewBox="0 0 256 256" enable-background="new 0 0 256 256" xml:space="preserve">
<path fill="#FFF" d="M223.838,0c8.874,0,16.455,3.162,22.711,9.417C252.838,15.707,256,23.288,256,32.162v191.643
  c0,4.59-0.884,8.805-2.584,12.681c-1.734,3.909-4.012,7.241-6.867,10.097c-2.822,2.822-6.256,5.1-10.233,6.834
  S228.156,256,223.838,256H31.651c-4.317,0-8.397-0.85-12.239-2.584s-7.173-4.012-9.995-6.834c-2.822-2.855-5.134-6.188-6.833-10.097
  C0.85,232.609,0,228.395,0,223.805V32.162c0-4.318,0.85-8.5,2.584-12.477c1.7-4.012,4.012-7.445,6.833-10.267
  s6.188-5.1,10.097-6.833C23.39,0.85,27.436,0,31.651,0H223.838L223.838,0z M200.652,141.327c9.111-0.681,16.25-3.842,21.486-9.52
  c1.564-1.53,1.768-3.366,0.68-5.474c-0.884-2.006-2.584-2.822-4.998-2.516h-0.68c2.551-2.55,4.25-5.032,4.998-7.479
  c0.884-2.21,0.477-4.012-1.326-5.337c-1.529-1.564-3.365-1.666-5.473-0.34c-0.918,0.442-2.551,1.02-4.965,1.666
  c-2.379,0.68-4.895,0.986-7.547,0.986c-0.477,0-0.884-0.034-1.258-0.136c-0.374-0.136-0.816-0.17-1.258-0.17
  c0-0.238-0.068-0.442-0.17-0.68c-0.102-0.204-0.17-0.442-0.17-0.646c-1.768-6.799-4.93-12.919-9.485-18.426
  c-4.556-5.508-9.757-9.52-15.673-12.103c0.441-0.408,0.781-0.884,1.02-1.326c0.204-0.442,0.545-0.884,0.986-1.326
  c0.646-1.768,0.646-3.604,0-5.508c-0.238-0.68-0.918-1.564-2.074-2.652c-1.156-1.122-3.094-1.563-5.779-1.36
  c-0.204-0.408-0.544-0.884-0.986-1.326c-1.326-1.326-2.719-1.802-4.182-1.496c-2.754,0.442-5.473,1.19-8.159,2.176l-0.34-0.34
  c-1.53-0.884-3.264-0.782-5.167,0.34c-6.527,4.114-11.968,9.655-16.319,16.659s-8.091,14.517-11.321,22.506
  c-3.91-3.434-7.037-5.711-9.485-6.833c-6.8-3.875-13.973-7.411-21.521-10.573c-7.547-3.162-16.115-6.595-25.668-10.267
  c-1.564-0.442-2.89-0.204-4.012,0.68c-1.088,0.646-1.938,1.836-2.482,3.501c-0.238,2.992,0.238,6.256,1.394,9.723
  c1.19,3.536,3.332,7.003,6.459,10.438c-2.788,0.646-3.91,2.448-3.332,5.337c1.292,7.547,5.1,13.157,11.287,16.829l-2.142,2.006
  c-1.564,1.564-1.802,3.4-0.646,5.508c0.408,1.326,1.904,3.399,4.386,6.221c2.482,2.822,6.154,4.998,10.913,6.426
  c-0.68,1.326-0.986,2.584-0.986,3.672c0,1.122,0.102,1.904,0.306,2.312c0.68,3.672,2.855,6.459,6.527,8.363
  c-4.114,2.787-8.5,4.657-13.191,5.643c-4.624,1.021-9.383,1.326-14.143,0.918c-4.759-0.373-9.383-1.529-13.837-3.398
  c-4.454-1.904-8.329-4.455-11.661-7.684c-0.884-0.885-1.972-1.326-3.264-1.326s-2.346,0.441-3.264,1.326
  c-2.516,2.006-2.754,4.182-0.646,6.493c8.874,12.341,19.922,21.759,33.08,28.184c13.191,6.425,27.606,9.655,43.245,9.655
  c10.675,0,20.942-1.462,30.733-4.42c9.859-2.924,18.767-7.004,26.688-12.238c7.922-5.202,14.857-11.457,20.671-18.732
  S198,149.996,200.652,141.327L200.652,141.327z"/>
</svg>
